<?xml version="1.0" encoding="UTF-8" standalone="no"?>
<!-- Svg Vector Icons : http://www.onlinewebfonts.com/icon -->

<svg
   version="1.1"
   x="0px"
   y="0px"
   viewBox="0 0 1000 1000"
   enable-background="new 0 0 1000 1000"
   xml:space="preserve"
   id="svg18"
   sodipodi:docname="cv.svg"
   inkscape:version="1.1.1 (1:1.1+202109281949+c3084ef5ed)"
   xmlns:inkscape="http://www.inkscape.org/namespaces/inkscape"
   xmlns:sodipodi="http://sodipodi.sourceforge.net/DTD/sodipodi-0.dtd"
   xmlns="http://www.w3.org/2000/svg"
   xmlns:svg="http://www.w3.org/2000/svg"><defs
   id="defs22" /><sodipodi:namedview
   id="namedview20"
   pagecolor="#ffffff"
   bordercolor="#666666"
   borderopacity="1.0"
   inkscape:pageshadow="2"
   inkscape:pageopacity="0.0"
   inkscape:pagecheckerboard="0"
   showgrid="false"
   inkscape:zoom="0.635"
   inkscape:cx="499.2126"
   inkscape:cy="497.6378"
   inkscape:window-width="2560"
   inkscape:window-height="1412"
   inkscape:window-x="2560"
   inkscape:window-y="0"
   inkscape:window-maximized="1"
   inkscape:current-layer="svg18" />
<metadata
   id="metadata2"> Svg Vector Icons : http://www.onlinewebfonts.com/icon </metadata>
<g
   id="g16"><g
     transform="translate(0.000000,512.000000) scale(0.100000,-0.100000)"
     id="g14"><path
       d="M1719.3,4993.2c-170.4-61.3-302.5-193.4-367.6-361.8c-26.8-72.8-28.7-518.8-24.9-4550.8l5.7-4470.4l51.7-88c67-114.9,199.1-233.6,304.4-273.8c78.5-28.7,329.3-30.6,3338.9-26.8c3097.7,5.7,3258.5,7.7,3317.9,40.2c113,61.3,220.2,174.2,275.7,291l53.6,114.9v3783.1c0,3390.6-3.8,3792.7-30.6,3876.9c-26.8,84.2-101.5,164.6-788.8,848.1c-583.9,578.2-783,763.9-855.8,798.4l-95.7,45.9l-2555.9-1.9C2247.7,5018.1,1778.6,5014.3,1719.3,4993.2z M6626.2,3890.4c0-802.2,3.8-832.8,113-888.3c49.8-26.8,162.7-30.6,796.4-30.6h737.1V-662.3c0-3237.5-3.8-3639.5-30.6-3675.9l-28.7-42.1H4998.8c-2896.7,0-3216.4,3.8-3243.2,30.6c-26.8,26.8-30.6,457.6-30.6,4457c0,4621.7-1.9,4468.5,76.6,4497.2c15.3,5.7,1108.5,11.5,2427.6,11.5l2397,1.9V3890.4z M7564.3,3894.3c273.8-268,497.8-494,497.8-503.5c0-11.5-202.9-15.3-511.2-13.4l-513.1,5.7l-5.7,503.5c-1.9,331.2,1.9,503.5,15.3,497.8C7056.9,4382.5,7290.5,4160.4,7564.3,3894.3z"
       id="path4" /><path
       d="M4462.8,1300.1c-530.3-180-830.9-783-650.9-1303.8c53.6-157,122.5-269.9,245.1-398.2c197.2-206.8,405.9-302.5,664.3-302.5c247,0,522.7,120.6,675.8,294.8c107.2,124.4,68.9,287.2-80.4,336.9c-80.4,26.8-151.3,1.9-241.2-86.1C4826.5-400,4391.9-327.3,4234.9-17.1c-86.2,166.6-95.7,405.9-28.7,605c47.9,135.9,199.1,283.3,333.1,323.5c206.8,61.3,371.4,26.8,534.1-112.9c70.8-61.3,118.7-86.2,157-86.2c124.4,0,206.8,82.3,208.7,206.8c0,99.6-67,180-239.3,281.4C4954.8,1346,4698.3,1380.5,4462.8,1300.1z"
       id="path6" /><path
       d="M5799.1,1248.4c-59.3-45.9-99.6-137.8-86.2-193.4c5.8-21.1,158.9-405.9,342.7-853.9c202.9-499.7,348.4-830.9,377.2-859.6c59.3-59.4,185.7-63.2,256.5-7.7c36.4,28.7,130.2,245.1,386.7,884.5c371.4,928.5,369.5,924.7,256.6,1018.5c-68.9,59.3-155.1,65.1-237.4,15.3c-49.8-30.6-86.2-107.2-285.3-608.8c-124.4-314-233.6-578.2-239.3-585.8C6563,48,6450,306.4,6319.8,628.1c-208.7,516.9-243.1,591.6-294.8,622.2C5948.4,1296.3,5858.5,1296.3,5799.1,1248.4z"
       id="path8" /><path
       d="M2728.2-1527.7c-126.4-51.7-162.7-229.7-67-327.4l55.5-55.5h2280.2h2280.2l59.3,53.6c49.8,44,61.3,68.9,61.3,130.2c0,95.7-47.9,170.4-124.4,197.2C7200.5-1504.7,2789.5-1502.8,2728.2-1527.7z"
       id="path10" /><path
       d="M2670.8-2818.1c-93.8-93.8-86.1-218.2,19.1-302.5c38.3-30.6,187.6-34.5,2310.8-34.5c2247.6,0,2272.5,0,2320.4,38.3c72.7,57.4,99.6,153.2,63.2,235.5c-55.5,137.8,105.3,128.3-2397,128.3H2735.9L2670.8-2818.1z"
       id="path12" /></g></g>
<path
   style="fill:#e1e1e1;stroke:#262626;stroke-width:0.755906;stroke-miterlimit:10"
   d="m 198.4252,988.27535 c -23.01276,-0.72963 -28.46832,-1.36853 -33.07087,-3.87291 -9.75299,-5.30687 -17.21113,-12.28836 -24.4587,-22.89554 l -7.08013,-10.36213 0.41509,-450.37554 0.41508,-450.375529 4.60162,-8.305627 c 5.36976,-9.692052 16.46159,-20.573513 26.27706,-25.778685 6.874,-3.645297 7.37728,-3.67423 81.71974,-4.698033 41.14174,-0.566581 157.71654,-1.101119 259.05512,-1.187863 l 184.25197,-0.157716 7.96084,4.566219 c 10.22241,5.863429 53.50011,46.86204 113.37218,107.401804 28.66851,28.98821 48.52975,50.3276 50.39371,54.14415 3.02258,6.18898 3.0839,12.97821 3.50423,387.97292 l 0.42783,381.67371 -3.88591,8.48794 c -4.271,9.3291 -17.13795,23.88526 -25.96732,29.37641 l -5.64808,3.51264 -157.48031,1.01641 c -183.88882,1.18685 -435.25297,1.11136 -474.80315,-0.14263 z m 625.37326,-40.45641 c 3.6194,-4.36111 4.58012,-103.69588 4.156,-429.7087 l -0.3954,-303.93701 -75.66208,-0.7874 c -84.7075,-0.88155 -82.22226,-0.52879 -85.88252,-12.18983 -1.2655,-4.03164 -2.09709,-29.17753 -2.60666,-78.82057 l -0.7483,-72.900159 -241.69325,0.459216 c -232.35863,0.441478 -241.77486,0.570845 -243.80641,3.349593 -1.16224,1.589709 -2.69946,8.321992 -3.41603,14.96063 -0.71658,6.638638 -1.30287,205.88915 -1.30287,442.77891 0,343.46521 0.40186,431.41125 1.98391,434.17723 1.64488,2.8758 3.6633,3.56403 11.81103,4.02728 5.40491,0.30729 150.5868,0.69526 322.62642,0.86214 287.82729,0.27921 312.96989,0.0978 314.93616,-2.27133 z M 805.82975,173.43535 c 1.18858,-1.18859 -47.05934,-50.2458 -80.35947,-81.707337 C 709.71498,76.842586 704.9566,73.141556 703.84087,74.9048 c -0.78674,1.243306 -1.4413,24.029403 -1.45456,50.63577 l -0.0241,48.37523 18.50394,0.59955 c 27.73054,0.89854 83.69647,0.18712 84.96361,-1.08 z"
   id="path876" /><path
   style="fill:#e1e1e1;stroke:#262626;stroke-width:0.755906;stroke-miterlimit:10"
   d="m 454.33071,580.15145 c -15.94459,-3.23051 -30.3756,-11.8192 -45.83581,-27.2794 -11.79274,-11.79274 -15.501,-16.73758 -20.77877,-27.70777 -8.30787,-17.26844 -12.1062,-35.65617 -10.66066,-51.60831 3.68893,-40.70865 31.24662,-77.23608 68.10927,-90.27808 12.98222,-4.59311 33.27712,-5.60667 46.17384,-2.30599 21.4241,5.48311 45.69523,21.0708 50.36578,32.34651 5.46866,13.20251 -7.7002,29.58863 -21.08033,26.23043 -2.08198,-0.52254 -7.46526,-3.85883 -11.96285,-7.41397 -13.19727,-10.43184 -23.56802,-14.44053 -36.95538,-14.28465 -16.49776,0.19208 -27.29109,4.66421 -38.63493,16.00805 -13.27245,13.27244 -16.40434,22.1419 -16.40434,46.45669 0,15.93154 0.55914,20.30694 3.56241,27.87659 4.66859,11.76705 15.48352,23.62864 26.42403,28.98133 17.02398,8.32906 41.28146,6.53063 55.02599,-4.07957 18.74517,-14.47048 23.60687,-16.26645 32.11846,-11.86493 10.1233,5.23496 13.84995,16.09986 8.84318,25.7819 -2.95465,5.71364 -14.23063,16.00232 -23.47598,21.42044 -18.08512,10.5986 -45.71719,15.59394 -64.83391,11.72073 z"
   id="path915" /><path
   style="fill:#e1e1e1;stroke:#262626;stroke-width:0.755906;stroke-miterlimit:10"
   d="m 647.03427,579.59951 c -3.13289,-1.7694 -6.70054,-8.13756 -14.59091,-26.04438 -10.13039,-22.99043 -38.25893,-91.23562 -53.64981,-130.16461 -8.56767,-21.6707 -8.57823,-24.62946 -0.11805,-33.08965 4.39434,-4.39433 6.42043,-5.2615 12.29323,-5.2615 13.3441,0 15.35663,3.11892 38.20919,59.21459 16.21622,39.80562 26.04866,62.04525 27.43103,62.04525 1.52404,0 2.9193,-3.16205 17.64508,-39.98887 29.42349,-73.58342 31.68944,-78.03517 41.34157,-81.22066 6.15696,-2.03198 13.27136,0.20917 19.44377,6.12512 7.4923,7.18099 5.63658,13.78292 -26.37284,93.82457 -25.03917,62.61209 -34.82816,85.10929 -39.5965,91.00129 -4.51774,5.58236 -15.35419,7.33247 -22.03576,3.55885 z"
   id="path954" /><path
   style="fill:#e1e1e1;stroke:#262626;stroke-width:0.755906;stroke-miterlimit:10"
   d="m 267.09748,697.02611 c -8.31227,-8.67615 -6.6888,-23.11749 3.33754,-29.68844 3.95961,-2.59501 15.56868,-2.80547 183.0381,-3.31828 98.34568,-0.30115 200.4034,-0.0388 226.7949,0.58298 l 47.98456,1.13052 5.16504,5.16505 c 4.43252,4.43251 5.16506,6.26032 5.16506,12.88762 0,6.66808 -0.70911,8.40987 -5.19309,12.75591 l -5.19307,5.03333 H 499.82595 271.45541 Z"
   id="path993" /><path
   style="fill:#ffffff;stroke:#262626;stroke-width:0.755906;stroke-miterlimit:10;fill-opacity:1"
   d="m 384.09919,825.98425 c -122.44168,-0.85507 -115.59183,-0.30619 -120.4235,-9.64962 -3.63366,-7.02672 -2.77065,-13.056 2.94044,-20.54291 l 5.19881,-6.81534 225.11615,0.006 c 245.20475,0.007 235.06168,-0.35961 239.61612,8.65521 6.01372,11.90327 -0.37534,25.8447 -12.59875,27.49146 -9.50255,1.28021 -207.59781,1.77857 -339.84927,0.85499 z"
   id="path1032" /><path
   style="fill:#ffffff;fill-opacity:1;stroke:#262626;stroke-width:0.755906;stroke-miterlimit:10"
   d="m 191.33858,986.79 c -20.03181,-1.02556 -22.62308,-1.50217 -28.34645,-5.21373 -7.42111,-4.81251 -17.58948,-15.26608 -23.41119,-24.06781 l -4.14787,-6.27109 V 500.71854 50.199691 l 6.7814,-10.121922 c 8.58317,-12.811252 21.37193,-22.933114 31.8474,-25.206125 5.31988,-1.15433 89.35193,-1.978783 262.27681,-2.573243 l 254.44891,-0.874714 6.18101,3.907056 c 3.39956,2.14888 13.26762,10.182799 21.92904,17.853155 19.02797,16.85074 124.55771,122.108252 135.51121,135.161632 l 7.79587,9.29042 1.02939,26.14265 c 0.56617,14.37847 1.09101,187.71746 1.16633,385.19778 l 0.13701,359.05512 -4.5594,7.87401 c -6.16539,10.64756 -14.73501,20.31836 -23.11197,26.08186 l -6.94652,4.77934 -308.26682,0.57601 C 352.10591,987.65953 203.46457,987.4108 191.33858,986.79 Z m 631.0638,-37.23573 c 1.35726,-0.52084 3.0116,-2.84818 3.67633,-5.17188 0.66471,-2.3237 1.47783,-167.74853 1.80693,-367.61074 l 0.59836,-363.38582 -13.8483,-0.12788 c -76.88139,-0.71012 -138.65646,-2.61771 -141.87644,-4.38108 -1.99027,-1.08996 -4.37975,-3.88745 -5.30992,-6.21668 -1.07647,-2.69556 -1.92662,-29.13613 -2.33876,-72.7389 -0.35612,-37.677164 -1.0356,-71.607175 -1.50993,-75.400022 l -0.86245,-6.896085 -234.125,1.030729 c -128.76876,0.566902 -238.16654,1.432712 -243.1062,1.92402 -8.63496,0.858854 -9.05992,1.11532 -11.02362,6.652758 -3.02642,8.534206 -3.02204,887.29944 0.004,890.32643 1.64036,1.64064 34.01022,2.2326 162.99212,2.98068 181.96922,1.0554 481.18863,0.4473 484.92244,-0.9855 z M 804.59329,174.13011 c 3.25799,-2.0622 -4.35338,-10.56441 -47.33066,-52.87027 C 715.16,79.814962 706.16235,71.947896 703.69074,74.419496 c -1.84353,1.843529 -4.08789,94.237874 -2.39624,98.646284 0.86109,2.24392 6.53619,2.52209 51.01829,2.50066 27.52718,-0.0126 51.0534,-0.65962 52.2805,-1.43633 z"
   id="path5240" /><path
   style="fill:#ffffff;fill-opacity:1;stroke:#262626;stroke-width:0.755906;stroke-miterlimit:10"
   d="m 450.55847,577.8228 c -22.33816,-6.00707 -50.00064,-29.45386 -61.29046,-51.94995 -11.91324,-23.73832 -14.03923,-50.59244 -5.95744,-75.25058 5.78219,-17.64191 16.1283,-33.57169 30.1344,-46.39757 31.6802,-29.0107 73.07087,-31.82353 109.36318,-7.4321 18.0133,12.10642 22.91659,22.3163 15.85903,33.02248 -6.26409,9.50249 -15.09484,11.13532 -24.66789,4.56115 -3.3689,-2.31354 -8.95992,-6.14071 -12.42449,-8.50481 -20.33576,-13.87643 -50.3119,-11.28661 -67.54217,5.83538 -15.56218,15.46438 -18.89197,25.1352 -18.01466,52.32048 0.50881,15.76656 1.17554,19.59157 4.75959,27.30579 4.75794,10.24086 15.37694,21.60812 24.56421,26.29512 9.34534,4.76764 24.71868,6.79943 35.86149,4.73956 10.36115,-1.91536 15.88422,-4.62052 30.31504,-14.84806 10.59926,-7.51201 15.0595,-8.44992 22.32258,-4.69404 6.2366,3.22508 9.46732,8.32244 9.46032,14.92633 -0.008,7.45548 -4.41529,14.22448 -14.47358,22.2289 -20.94422,16.6675 -54.33311,24.27869 -78.26915,17.84192 z"
   id="path5279" /><path
   style="fill:#ffffff;fill-opacity:1;stroke:#262626;stroke-width:0.755906;stroke-miterlimit:10"
   d="m 646.84235,577.18735 c -4.72021,-3.71291 -16.36428,-29.62973 -46.35361,-103.1716 -26.95473,-66.10022 -28.29337,-70.08221 -25.6805,-76.39024 1.09782,-2.65038 3.76734,-6.21218 5.93226,-7.91511 4.73705,-3.72616 15.49848,-4.13665 20.29892,-0.77429 4.37356,3.06336 12.69889,20.48899 31.07369,65.03985 15.53687,37.67016 21.87166,51.43693 24.38289,52.98896 1.65302,1.02162 8.72705,-14.80978 27.03723,-60.50823 17.1887,-42.89946 23.78829,-55.91914 29.96381,-59.11263 5.98965,-3.09736 12.4197,-1.90847 18.82414,3.48052 8.89438,7.48412 7.05578,14.24147 -27.09438,99.57896 -26.33741,65.8143 -35.48802,85.33485 -41.22826,87.95029 -6.24065,2.84343 -12.60888,2.41044 -17.15619,-1.16648 z"
   id="path5318" /><path
   style="fill:#ffffff;fill-opacity:1;stroke:#262626;stroke-width:0.755906;stroke-miterlimit:10"
   d="m 268.95037,697.24409 c -6.70423,-7.68587 -7.67055,-15.6763 -2.8516,-23.57978 1.70218,-2.79171 5.06567,-5.62636 7.47443,-6.29921 2.40875,-0.67285 105.5992,-1.22337 229.31209,-1.22337 h 224.93254 l 4.59502,5.14296 c 6.20866,6.949 6.42356,16.85174 0.51803,23.87007 L 728.85387,700 H 500.10408 c -215.89129,0 -228.88492,-0.15491 -231.15371,-2.75591 z"
   id="path5357" /><path
   style="fill:#ffffff;fill-opacity:1;stroke:#262626;stroke-width:0.755906;stroke-miterlimit:10"
   d="m 369.29134,824.53109 c -52.83465,-0.57297 -97.32936,-1.62928 -98.87714,-2.34735 -3.72382,-1.7276 -7.42207,-9.09346 -7.42207,-14.78264 0,-2.57665 2.06286,-7.41404 4.73428,-11.10183 l 4.73429,-6.53549 201.95862,0.0947 c 111.07725,0.0521 214.30189,0.65304 229.3881,1.33543 25.83236,1.16845 27.59746,1.44818 30.31496,4.80414 6.08181,7.51074 2.87505,22.08911 -5.8355,26.52884 -4.20049,2.14097 -230.09348,3.40207 -358.99554,2.00417 z"
   id="path5396" /></svg>
